<svg width="24" height="24" viewBox="0 0 24 24" fill="none" xmlns="http://www.w3.org/2000/svg">
<path fill-rule="evenodd" clip-rule="evenodd" d="M9.51931 2.26621C11.0565 1.38783 12.9435 1.38783 14.4807 2.26621L17.4807 3.98049C19.0386 4.87071 20 6.52742 20 8.32171V14.0004C20 18.4187 16.4183 22.0004 12 22.0004C7.58172 22.0004 4 18.4187 4 14.0004V8.32171C4 6.52742 4.96143 4.87071 6.51931 3.98049L9.51931 2.26621ZM13.193 13.9718L17.2281 9.68591L15.7719 8.31493L11.739 12.5985C11.5015 12.8472 11.3397 12.9186 11.0713 12.9747C10.8246 13.0262 10.5682 13.0003 10.3325 12.8978C10.0962 12.795 9.88626 12.6174 9.73504 12.3798C9.58354 12.1418 9.5 11.8571 9.5 11.5622H7.5C7.5 12.2317 7.6889 12.8898 8.04781 13.4537C8.40701 14.0181 8.92255 14.4656 9.535 14.7319C10.1481 14.9985 10.8258 15.0691 11.4801 14.9325C12.112 14.8005 12.6475 14.5444 13.189 13.976L13.193 13.9718Z" fill="#4F3422"/>
</svg>

