<svg width="24" height="24" viewBox="0 0 24 24" fill="none" xmlns="http://www.w3.org/2000/svg">
<path fill-rule="evenodd" clip-rule="evenodd" d="M2 12.0005C2 6.47764 6.47715 2.00049 12 2.00049C17.5228 2.00049 22 6.47764 22 12.0005C22 17.5233 17.5228 22.0005 12 22.0005C6.47715 22.0005 2 17.5233 2 12.0005ZM10 10.0005C10 9.4482 10.4477 9.00049 11 9.00049H13C13.5523 9.00049 14 9.4482 14 10.0005H16C16 8.34363 14.6569 7.00049 13 7.00049V6.00049H11V7.00049C9.34315 7.00049 8 8.34363 8 10.0005C8 11.6573 9.34315 13.0005 11 13.0005H13C13.5523 13.0005 14 13.4482 14 14.0005C14 14.5528 13.5523 15.0005 13 15.0005H11C10.4477 15.0005 10 14.5528 10 14.0005H8C8 15.6573 9.34315 17.0005 11 17.0005V18.0005H13V17.0005C14.6569 17.0005 16 15.6573 16 14.0005C16 12.3436 14.6569 11.0005 13 11.0005H11C10.4477 11.0005 10 10.5528 10 10.0005Z" fill="#4F3422"/>
</svg>

