<svg width="375" height="408" viewBox="0 0 375 408" fill="none" xmlns="http://www.w3.org/2000/svg">
<g opacity="0.48">
<path d="M403 354.472C321.811 400.522 94.2449 489.885 1.17747 482.578C-11.1091 481.598 -25.9264 478.128 -29.3552 466.289C-32.1717 456.532 -25.2733 446.816 -18.1299 439.631C8.89227 412.524 45.1804 396.562 81.8767 385.621C118.573 374.68 156.494 368.189 192.986 356.595C136.003 352.268 79.8358 337.489 28.0772 313.158C13.5456 306.341 -0.86348 298.584 -12.2112 287.235C-22.171 277.274 -29.5184 261.067 -21.5179 249.432C-16.3747 242.002 -6.78224 239.267 2.03467 237.389C93.9591 217.875 192.66 232.163 275.318 276.906C215.926 247.023 161.719 206.812 115.838 158.68C100.164 142.228 84.8973 123.735 80.6113 101.445C79.2643 94.4231 79.101 86.9114 82.04 80.4204C88.571 65.9687 107.348 61.8455 123.104 63.5193C145.514 65.9279 166.331 76.1747 185.557 87.932C245.847 124.796 294.952 177.418 337.812 233.51C313.402 199.382 288.992 165.253 264.583 131.083C251.031 112.141 237.234 92.6676 231.315 70.1328C225.396 47.5979 228.948 21.0623 246.133 5.38587C249.031 2.73231 252.5 0.364518 256.419 0.0379258C259.44 -0.207018 262.46 0.772758 265.277 1.87501C315.117 20.8174 349.282 68.9489 364.875 119.979C380.468 171.009 397.326 271.763 396.959 325.12L403 354.472Z" fill="#DDD6FE"/>
<path d="M360.411 213.815C410.804 170.355 477.966 146.783 544.513 149.24C551.829 149.503 559.321 150.117 565.964 153.217C572.607 156.317 578.284 162.371 579.016 169.653C579.66 176 576.529 182.083 572.9 187.318C563.067 201.414 548.961 211.943 534.417 221.068C483.438 252.975 423.534 270.493 363.366 271.02C431.523 246.599 507.523 244.698 576.821 265.668C595.316 271.254 614.514 279.355 625.049 295.528C627.185 298.774 628.941 302.459 628.853 306.349C628.649 316.906 616.211 322.317 605.822 324.305C551.215 334.776 495.027 323.223 440.624 311.701C423.183 308.016 405.39 304.184 390.114 295.001C424.47 297.399 458.651 302.02 492.423 308.805C535.032 317.403 579.367 330.944 608.31 363.349C618.201 374.433 625.927 391.483 617.206 403.503C613.109 409.148 606.29 412.131 599.618 414.149C572.051 422.367 542.201 418.038 514.722 409.499C487.243 400.959 461.197 388.383 433.747 379.697C405.331 370.719 374.516 365.454 351.309 346.796C400.649 349.164 443.697 380.282 480.102 413.652C493.856 426.286 507.318 439.593 516.858 455.649C520.341 461.498 523.326 468.107 522.419 474.834C520.575 488.258 504.684 494.721 491.135 495.277C473.459 496.008 455.579 491.095 440.741 481.443C429.299 473.986 419.817 463.954 410.453 454.04C371.531 412.774 332.609 371.508 293.717 330.213L360.411 213.815Z" fill="#DDD6FE"/>
<path d="M120.26 80.8076C122.586 75.5838 120.235 69.4639 115.008 67.1385C109.781 64.8131 103.657 67.1626 101.33 72.3864C99.0035 77.6102 101.355 83.7301 106.582 86.0555C111.809 88.381 117.933 86.0314 120.26 80.8076Z" fill="#DDD6FE"/>
</g>
<path d="M100.78 306.7V305.998C100.78 301.407 95.9219 297.575 89.6885 297.02C95.9219 296.464 100.78 292.662 100.78 288.041V287.339C100.78 282.835 96.0975 279.063 90.069 278.419C96.0975 277.747 100.78 274.003 100.78 269.499V268.797C100.78 263.826 95.1025 259.76 88.1668 259.76H39.7634C32.8277 259.76 27.1504 263.826 27.1504 268.797V269.499C27.1504 274.003 31.8327 277.776 37.8612 278.419C31.8327 279.092 27.1504 282.835 27.1504 287.339V288.041C27.1504 292.633 32.0083 296.464 38.2416 297.02C32.0083 297.575 27.1504 301.377 27.1504 305.998V306.7C27.1504 311.672 32.8277 315.737 39.7634 315.737H88.1668C95.1025 315.737 100.78 311.672 100.78 306.7Z" fill="#C4B5FD"/>
<path d="M93.3774 275.992C74.7067 275.992 56.0067 275.992 37.336 275.992C35.6094 275.992 35.6094 278.653 37.336 278.653C56.0067 278.653 74.7067 278.653 93.3774 278.653C95.104 278.653 95.104 275.992 93.3774 275.992Z" fill="#5D2AAD"/>
<path d="M93.3755 296.786C74.7341 296.786 56.0634 296.786 37.4219 296.786C35.6953 296.786 35.6953 299.447 37.4219 299.447C56.0634 299.447 74.7341 299.447 93.3755 299.447C95.1022 299.447 95.1022 296.786 93.3755 296.786Z" fill="#5D2AAD"/>
<path d="M35.9004 260.55C35.9004 278.683 35.9004 296.815 35.9004 314.947C35.9004 316.673 38.5635 316.673 38.5635 314.947C38.5635 296.815 38.5635 278.683 38.5635 260.55C38.5635 258.825 35.9004 258.825 35.9004 260.55Z" fill="#5D2AAD"/>
<path d="M230.535 83.2028C234.515 83.232 238.261 79.7518 240.514 75.1017C242.768 70.4516 243.704 64.7194 243.997 59.1042C244.231 64.3392 244.465 69.6912 245.987 74.4583C247.479 79.2546 250.494 83.4367 254.181 83.9047C250.757 84.6651 247.977 88.5548 246.484 93.0001C244.992 97.4455 244.524 102.417 244.085 107.301C243.148 101.949 242.212 96.4804 240.075 91.8303C237.968 87.2094 234.457 83.466 230.564 83.466L230.535 83.2028Z" fill="white"/>
<path d="M188.66 126.955C192.64 126.984 196.386 123.504 198.639 118.854C200.893 114.203 201.829 108.471 202.122 102.856C202.356 108.091 202.59 113.443 204.112 118.21C205.604 123.006 208.619 127.189 212.306 127.657C208.882 128.417 206.102 132.307 204.609 136.752C203.117 141.197 202.649 146.169 202.21 151.053C201.273 145.701 200.337 140.232 198.2 135.582C196.093 130.961 192.582 127.218 188.689 127.218L188.66 126.955Z" fill="white"/>
<path d="M88.9844 381.072C92.9643 381.101 96.7102 377.621 98.9636 372.97C101.217 368.32 102.153 362.588 102.446 356.973C102.68 362.208 102.914 367.56 104.436 372.327C105.928 377.123 108.943 381.306 112.63 381.773C109.206 382.534 106.426 386.424 104.934 390.869C103.441 395.314 102.973 400.286 102.534 405.17C101.597 399.818 100.661 394.349 98.5246 389.699C96.4175 385.078 92.9058 381.335 89.0136 381.335L88.9844 381.072Z" fill="white"/>
<path d="M296.674 95.8368C296.879 86.9753 301.356 80.6875 309.462 79.2544C317.569 77.7921 325.792 81.3601 332.581 86.0102C339.371 90.6603 345.341 96.5095 352.51 100.604C369.133 110.08 392.661 110.898 401.704 127.773C403.079 130.347 403.987 134.061 402.611 136.81C400.533 140.992 397.285 139.267 393.715 140.963C390.613 142.455 390.174 147.046 391.959 150C393.744 152.954 396.934 154.738 399.919 156.434C412.122 163.395 423.477 171.818 433.661 181.469C439.514 187.025 445.425 194.512 443.406 202.321C442.382 206.24 435.68 205.713 435.387 209.749C434.656 219.781 453.883 229.929 451.893 239.785C450.956 244.406 446.098 247.447 441.387 247.623C436.675 247.798 432.168 245.751 428.159 243.294C417.858 237.007 403.635 212.031 393.656 205.187C378.088 194.512 383.004 215.16 370.947 215.745C359.534 216.3 353.593 198.665 349.847 190.418C343.79 177.023 337.556 162.576 325.646 153.305C323.48 151.638 320.876 150.088 318.183 150.556C316.018 150.936 314.291 152.545 312.155 153.129C305.453 154.913 301.151 146.198 300.01 139.355C297.64 124.995 296.498 110.43 296.674 95.8368Z" fill="#5D2AAD"/>
<path d="M361.642 170.034H261.967V298.101H361.642V170.034Z" fill="white"/>
<path d="M411.127 398.678C364.421 386.628 317.978 373.175 272.238 357.88C267.087 356.154 261.937 354.458 256.786 352.703C247.334 372.912 237.706 392.975 227.785 412.891C266.619 427.836 306.858 439.095 346.892 450.384C362.372 454.742 377.912 459.041 393.481 463.048C410.395 467.405 430.471 457.403 434.509 439.651C438.519 422.279 429.212 403.357 411.127 398.678Z" fill="#C4B5FD"/>
<path d="M451.102 266.721C437.114 260.199 422.189 257.128 406.708 257.479C393.188 257.801 379.55 259.877 366.235 262.217C347.652 265.493 329.83 270.844 312.33 277.425C297.171 271.693 281.749 266.896 265.712 263.621C241.715 258.766 216.811 255.052 192.55 259.907C167.412 264.937 144.791 283.713 137.563 308.601C129.925 334.805 141.981 364.46 162.789 381.16C181.313 396.046 205.105 404.176 227.053 412.658C227.317 412.745 227.551 412.862 227.814 412.95C237.735 393.034 247.363 372.971 256.815 352.762C248.475 349.925 240.193 346.942 232.087 343.491C226.146 340.976 192.785 327.903 209.875 324.452C237.735 318.808 276.247 333.986 301.414 344.339C300.888 344.105 300.361 343.871 299.834 343.637C301.97 344.427 304.194 344.924 306.477 345.217C313.705 346.416 321.226 345.597 327.694 342.555C329.274 342.058 330.884 341.473 332.464 340.859C357.982 331.032 387.452 322.522 415.107 324.511C417.623 324.686 419.73 325.417 420.901 327.347C416.716 333.782 407.703 337.525 400.826 340.303C386.984 345.919 372.966 351.124 358.831 356.038C367.698 376.656 374.605 397.918 381.745 419.004C429.827 403.942 485.429 382.242 489.175 328.371C490.96 302.693 474.075 277.454 451.102 266.721Z" fill="#5D2AAD"/>
<path d="M381.716 419.004C374.575 397.888 367.698 376.626 358.802 356.037C316.193 370.836 272.501 382.885 229.102 394.554C223.922 395.958 218.771 397.333 213.562 398.678C197.408 402.86 185.644 420.758 189.331 437.224C189.097 437.341 188.863 437.458 188.629 437.575L190.326 440.675C191.672 444.535 193.633 448.074 196.033 451.145L223.922 502.208C229.57 512.561 244.348 513.205 250.64 503.232C259.156 489.749 260.532 472.348 252.923 457.286C285.963 448.396 318.826 438.745 351.398 428.333C360.733 425.35 371.034 422.338 381.716 419.004Z" fill="#C4B5FD"/>
<path d="M184.795 272.073C181.839 275.67 183.361 273.915 184.795 272.073V272.073Z" fill="#C4B5FD"/>
<path d="M250.816 157.048C244.085 163.219 238.32 170.092 233.228 177.462C224.625 189.95 217.952 203.842 211.807 218.084C202.501 239.697 192.843 270.464 172.241 284.209C152.224 297.575 123.165 285.438 108.825 268.972C99.636 258.414 80.2337 259.058 71.0446 269.177C60.7143 280.553 61.4166 295.644 71.2495 306.933C90.6811 329.277 121.877 342.087 151.2 342.555C175.285 342.935 197.965 333.839 215.494 317.491C240.691 293.977 250.67 259.672 264.951 229.432C268.287 222.354 271.887 215.364 276.13 208.755C273.35 188.751 266.473 169.887 250.816 157.048Z" fill="#C4B5FD"/>
<path d="M544.778 263.796C531.024 256.631 518.118 261.836 508.812 272.774C498.54 284.882 487.068 293.773 469.949 292.077C433.163 288.45 419.204 236.188 405.889 208.609C396.7 189.599 385.374 170.238 369.308 156.2C357.134 171.291 349.116 190.272 346.014 209.077C362.548 231.128 372.586 264.702 382.214 282.367C390.027 296.697 399.626 311.057 412.034 321.79C427.983 335.624 446.274 343.286 467.198 345.479C501.964 349.106 536.73 329.57 554.552 300.236C561.81 288.304 557.391 270.376 544.778 263.796ZM507.085 275.787C506.793 276.108 506.529 276.43 506.237 276.781C507.319 275.436 508.783 273.827 507.085 275.787Z" fill="#C4B5FD"/>
<path d="M353.825 145.379C325.614 130.054 286.605 130.376 260.091 149.474C256.784 151.843 253.712 154.387 250.785 157.048C266.471 169.887 273.348 188.722 276.099 208.755C276.626 207.936 277.152 207.117 277.708 206.298C278.177 205.596 278.674 204.895 279.142 204.222C286.312 194.074 298.223 187.581 310.719 187.727C325.263 187.903 336.676 196.647 345.982 209.077C349.084 190.301 357.132 171.291 369.277 156.2C364.595 152.106 359.444 148.45 353.825 145.379Z" fill="white"/>
<path d="M117.926 277.687C117.106 276.927 116.492 276.371 116.082 275.991C116.667 276.547 117.282 277.103 117.926 277.687C117.896 277.687 117.896 277.687 117.926 277.687Z" fill="#C4B5FD"/>
<path d="M75.6697 217.763C63.9054 225.542 55.5943 238.615 57.4379 252.068C59.4279 266.545 71.8946 276.693 87.6096 277.161C95.7451 277.395 104.378 277.044 111.402 272.628C117.869 268.592 122.288 261.953 124.336 255.139C128.726 240.487 122.025 225.805 109.236 217.09C99.5788 210.51 88.1656 224.636 97.8522 231.245C104.437 235.749 108.709 243.236 106.251 250.986C105.402 253.706 103.471 256.923 100.808 258.473C97.7058 260.316 92.3212 259.965 88.8094 259.76C81.0544 259.292 76.4306 255.198 76.0501 248.354C75.6697 241.335 81.2592 235.223 87.2877 231.216C91.4725 228.438 91.9115 222.442 88.8972 218.962C85.6489 215.131 79.8838 214.984 75.6697 217.763Z" fill="#C4B5FD"/>
<path d="M73.9129 219.167C77.5417 222.793 81.1998 226.449 84.8285 230.075C86.0577 231.304 87.9306 229.403 86.7307 228.174C83.1019 224.548 79.4439 220.892 75.8151 217.266C74.586 216.067 72.7131 217.938 73.9129 219.167Z" fill="#5D2AAD"/>
<path d="M99.4616 230.076C102.798 226.742 106.134 223.408 109.47 220.074C110.699 218.845 108.797 216.974 107.568 218.173C104.232 221.507 100.896 224.841 97.5594 228.175C96.3595 229.403 98.2325 231.304 99.4616 230.076Z" fill="#5D2AAD"/>
<path d="M89.3325 289.62C94.3367 287.164 100.511 288.86 103.584 293.51C104.521 294.943 106.833 293.598 105.896 292.165C101.975 286.257 94.3367 284.21 87.9863 287.339C86.4353 288.099 87.7814 290.381 89.3325 289.62Z" fill="#5D2AAD"/>
<path d="M331.94 149.182L327.375 119.673C330.009 120.726 333.081 120.521 335.598 118.795C339.637 116.075 340.69 110.606 337.969 106.571C335.247 102.535 329.775 101.482 325.736 104.202C325.502 104.377 325.268 104.523 325.063 104.728L323.102 92.0061C322.868 90.4268 321.522 89.257 319.912 89.257C311.982 89.2278 289.536 91.3335 284.21 115.578C283.8 117.421 285.029 119.234 286.873 119.497L296.413 120.959L289.36 146.901C286.697 156.698 291.028 167.197 300.042 171.877C300.452 172.081 300.891 172.315 301.33 172.52C317.103 179.831 334.574 166.32 331.94 149.182Z" fill="#C4B5FD"/>
<path d="M317.863 107.565C317.658 102.944 313.415 99.5811 308.879 100.195C307.181 100.429 307.913 103.003 309.581 102.769C312.361 102.389 315.053 104.816 315.17 107.565C315.258 109.291 317.921 109.291 317.863 107.565Z" fill="#5D2AAD"/>
<path d="M304.344 94.3458C299.252 96.042 294.16 97.7675 289.068 99.4638C288.336 99.727 287.722 100.692 288.278 101.423C289.448 103.061 290.648 104.699 291.819 106.307C292.814 107.682 295.125 106.366 294.131 104.962C292.96 103.324 291.76 101.686 290.59 100.078C290.326 100.721 290.063 101.394 289.799 102.037C294.891 100.341 299.983 98.6157 305.075 96.9194C306.685 96.3637 305.983 93.7901 304.344 94.3458Z" fill="#5D2AAD"/>
<path d="M300.188 111.074C300.159 111.776 298.93 112.478 298.345 111.952C297.028 110.87 295.126 112.741 296.443 113.853C298.813 115.841 302.734 114.233 302.852 111.074C302.91 109.349 300.247 109.349 300.188 111.074Z" fill="#5D2AAD"/>
<path d="M332.407 109.495C330.476 109.846 328.544 110.168 326.642 110.519C324.945 110.811 325.677 113.385 327.345 113.093C329.276 112.742 331.207 112.42 333.11 112.069C334.807 111.776 334.075 109.203 332.407 109.495Z" fill="#5D2AAD"/>
</svg>

