<svg width="20" height="20" viewBox="0 0 20 20" fill="none" xmlns="http://www.w3.org/2000/svg">
<path fill-rule="evenodd" clip-rule="evenodd" d="M0 10.0005C0 4.47764 4.47715 0.000488281 10 0.000488281C15.5228 0.000488281 20 4.47764 20 10.0005C20 15.5233 15.5228 20.0005 10 20.0005C4.47715 20.0005 0 15.5233 0 10.0005ZM6.49999 9.00049C7.32841 9.00049 7.99999 8.32892 7.99999 7.50049C7.99999 6.67206 7.32841 6.00049 6.49999 6.00049C5.67156 6.00049 4.99999 6.67206 4.99999 7.50049C4.99999 8.32892 5.67156 9.00049 6.49999 9.00049ZM13.5 9.00049C14.3284 9.00049 15 8.32892 15 7.50049C15 6.67206 14.3284 6.00049 13.5 6.00049C12.6716 6.00049 12 6.67206 12 7.50049C12 8.32892 12.6716 9.00049 13.5 9.00049ZM6.99998 15.1966C7.9121 15.7233 8.94676 16.0005 9.99998 16.0005C11.0532 16.0005 12.0879 15.7233 13 15.1966C13.9121 14.67 14.6695 13.9126 15.1961 13.0005L13.4641 12.0005C13.113 12.6086 12.6081 13.1135 12 13.4646C11.3919 13.8157 10.7021 14.0005 9.99998 14.0005C9.29784 14.0005 8.60806 13.8157 7.99999 13.4646C7.39191 13.1135 6.88696 12.6086 6.53588 12.0005L4.80383 13.0005C5.33044 13.9126 6.08787 14.67 6.99998 15.1966Z" fill="#4F3422"/>
</svg>

