<svg width="19" height="19" viewBox="0 0 19 19" fill="none" xmlns="http://www.w3.org/2000/svg">
<path d="M2 0.000488281V14.0005C2 15.6573 3.34315 17.0005 5 17.0005H19V19.0005H5C2.23858 19.0005 0 16.7619 0 14.0005V0.000488281H2Z" fill="#4F3422"/>
<path d="M7.70711 10.2934C7.89464 10.4809 8 10.7353 8 11.0005H10C10 10.2048 9.68393 9.44178 9.12132 8.87917C8.55871 8.31656 7.79565 8.00049 7 8.00049C6.20435 8.00049 5.44129 8.31656 4.87868 8.87917C4.31607 9.44178 4 10.2048 4 11.0005H6C6 10.7353 6.10536 10.4809 6.29289 10.2934C6.48043 10.1058 6.73478 10.0005 7 10.0005C7.26522 10.0005 7.51957 10.1058 7.70711 10.2934Z" fill="#4F3422"/>
<path d="M8 4.00049C8 3.73527 7.89464 3.48092 7.70711 3.29338C7.51957 3.10585 7.26522 3.00049 7 3.00049C6.73478 3.00049 6.48043 3.10584 6.29289 3.29338C6.10536 3.48092 6 3.73527 6 4.00049L4 4.00049C4 3.20484 4.31607 2.44178 4.87868 1.87917C5.44129 1.31656 6.20435 1.00049 7 1.00049C7.79565 1.00049 8.55871 1.31656 9.12132 1.87917C9.68393 2.44178 10 3.20484 10 4.00049H8Z" fill="#4F3422"/>
<path d="M14.7071 14.2934C14.8946 14.4809 15 14.7353 15 15.0005H17C17 14.2048 16.6839 13.4418 16.1213 12.8792C15.5587 12.3166 14.7956 12.0005 14 12.0005C13.2044 12.0005 12.4413 12.3166 11.8787 12.8792C11.3161 13.4418 11 14.2048 11 15.0005H13C13 14.7353 13.1054 14.4809 13.2929 14.2934C13.4804 14.1058 13.7348 14.0005 14 14.0005C14.2652 14.0005 14.5196 14.1058 14.7071 14.2934Z" fill="#4F3422"/>
<path d="M15 8.00049C15 7.73527 14.8946 7.48092 14.7071 7.29338C14.5196 7.10585 14.2652 7.00049 14 7.00049C13.7348 7.00049 13.4804 7.10584 13.2929 7.29338C13.1054 7.48092 13 7.73527 13 8.00049L11 8.00049C11 7.20484 11.3161 6.44178 11.8787 5.87917C12.4413 5.31656 13.2044 5.00049 14 5.00049C14.7956 5.00049 15.5587 5.31656 16.1213 5.87917C16.6839 6.44178 17 7.20484 17 8.00049H15Z" fill="#4F3422"/>
</svg>

