<svg width="18" height="20" viewBox="0 0 18 20" fill="none" xmlns="http://www.w3.org/2000/svg">
<path d="M5 0.000488281C2.23858 0.000488281 0 2.23906 0 5.00049V15.0005C0 17.7619 2.23858 20.0005 5 20.0005H9C11.7614 20.0005 14 17.7619 14 15.0005V14.5005H12V15.0005C12 16.6573 10.6569 18.0005 9 18.0005H5C3.34315 18.0005 2 16.6573 2 15.0005V5.00049C2 3.97368 2.51586 3.06736 3.30255 2.52655L3.30448 2.53122C3.5055 3.01652 3.80014 3.45748 4.17157 3.82892C4.54301 4.20035 4.98396 4.49499 5.46927 4.69601C5.95457 4.89703 6.47471 5.00049 7 5.00049C7.52529 5.00049 8.04543 4.89703 8.53073 4.69601C9.01604 4.49499 9.45699 4.20035 9.82843 3.82892C10.1999 3.45748 10.4945 3.01652 10.6955 2.53122L10.6974 2.52655C11.4841 3.06736 12 3.97368 12 5.00049V5.50049H14V5.00049C14 2.23906 11.7614 0.000488281 9 0.000488281H5Z" fill="#4F3422"/>
<path d="M11.8426 12.8145L17.7213 6.69316L16.2787 5.30782L10.4078 11.4211C10.1291 11.6973 9.77517 11.8855 9.39018 11.9621C9.00222 12.0392 8.60009 11.9996 8.23463 11.8483C7.86918 11.6969 7.55682 11.4405 7.33706 11.1116C7.1173 10.7827 7 10.3961 7 10.0005H5C5 10.7916 5.2346 11.565 5.67412 12.2228C6.11365 12.8806 6.73836 13.3933 7.46927 13.696C8.20017 13.9988 9.00444 14.078 9.78036 13.9236C10.5563 13.7693 11.269 13.3883 11.8284 12.8289L11.8426 12.8145Z" fill="#4F3422"/>
</svg>

