<svg width="343" height="250" viewBox="0 0 343 250" fill="none" xmlns="http://www.w3.org/2000/svg">
<mask id="mask0_2792_56334" style="mask-type:luminance" maskUnits="userSpaceOnUse" x="3" y="4" width="338" height="242">
<path d="M204.121 5.36643C181.287 2.0678 165.731 7.11514 147.086 16.533C135.913 22.1744 127.618 29.6584 117.149 36.4366C105.514 43.9778 83.5994 41.6015 62.4516 47.8289C18.8163 60.666 -7.40527 107.006 7.96195 150.831C13.4589 166.522 24.2466 180.419 38.2698 189.391C52.5053 198.505 69.6559 201.442 85.904 204.971C107.443 209.645 117.956 229.118 136.672 238.111C157.407 248.066 183.036 247.597 203.057 236.058C219.707 226.479 235.265 210.77 255.062 210.404C272.114 210.078 291.247 219.132 308.011 212.281C341.788 198.511 349.135 148.233 331.085 120.139C318.147 99.9978 296.995 86.6102 282.748 67.3697C271.923 52.7469 264.507 34.4714 249.513 23.3759C236.51 13.764 221.869 7.92909 204.121 5.36643Z" fill="white"/>
</mask>
<g mask="url(#mask0_2792_56334)">
<path d="M357.698 -20.0857L-19.5986 -8.59082L-11.1423 268.971L366.154 257.476L357.698 -20.0857Z" fill="#E8DDD9"/>
</g>
<mask id="mask1_2792_56334" style="mask-type:luminance" maskUnits="userSpaceOnUse" x="3" y="4" width="337" height="242">
<path d="M207.741 6.36396C185.018 2.37137 169.315 6.94281 150.391 15.7888C139.051 21.0876 130.532 28.3158 119.86 34.7722C108.001 41.9559 86.1677 38.9132 64.8393 44.4939C20.8318 55.9967 -6.78984 101.518 7.23617 145.793C12.2529 161.645 22.6128 175.864 36.3568 185.259C50.3086 194.802 67.3625 198.261 83.4961 202.283C104.884 207.611 114.799 227.396 133.233 236.955C153.656 247.537 179.289 247.849 199.652 236.925C216.587 227.856 232.617 212.628 252.417 212.865C269.471 213.058 288.32 222.691 305.285 216.353C339.467 203.619 348.343 153.585 331.155 124.954C318.836 104.427 298.102 90.4013 284.447 70.7352C274.072 55.789 267.215 37.2954 252.565 25.7481C239.86 15.7443 225.404 9.46601 207.741 6.36396Z" fill="white"/>
</mask>
<g mask="url(#mask1_2792_56334)">
<path d="M111.029 212.732C109.975 222.854 109.589 231.611 109.99 237.489C109.99 237.489 152.335 265.956 237.041 230.854C229.323 223.611 220.432 210.03 212.313 194.03C194.651 202.832 175.667 209.199 156.016 212.895C141.589 215.374 125.619 217.169 111.029 212.732Z" fill="#736B66"/>
</g>
<path d="M30.8072 197.636C31.6087 197.399 32.4398 197.221 33.2562 197.102C51.5419 194.505 70.837 205.399 85.427 215.225C86.8816 216.204 88.3658 217.258 89.3305 218.727C97.0634 230.557 63.7127 230.126 58.3546 229.295C46.4213 227.455 28.1356 227.796 22.5697 214.512C21.2487 211.366 20.9222 207.699 22.258 204.553C23.7571 201.065 27.1114 198.735 30.8072 197.636Z" fill="#E8DDD9"/>
<path d="M241.45 233.436C245.591 235.484 250.994 236.835 254.957 238.408C257.45 239.403 259.959 240.397 262.66 240.842C267.202 241.584 272.218 240.605 276.834 238.289C279.921 236.746 289.51 231.076 286.497 226.876C285.22 225.08 282.341 224.635 280.218 224.204C272.649 222.646 265.079 221.072 257.495 219.514C251.884 218.356 246.304 217.688 240.545 221.904C238.838 223.165 237.176 224.917 236.775 226.965C236.359 229.043 237.383 230.913 238.868 231.952C239.654 232.486 240.53 232.991 241.45 233.436Z" fill="#E8DDD9"/>
<path d="M188.937 70.7049C185.093 65.8811 185.108 58.3264 188.952 53.5174C193.524 47.8031 202.206 46.7939 208.915 49.6436C210.533 50.3263 212.076 51.2169 213.442 52.3597C215.757 54.3041 217.449 56.9015 219.082 59.4544C220.492 61.6362 221.887 63.818 223.297 65.9999C224.084 67.2169 224.885 68.5082 225.034 69.9479C225.405 73.5991 221.65 76.152 218.325 77.6363C213.59 79.7439 208.336 81.4804 203.29 80.3079C199.965 79.5361 197.056 77.562 194.221 75.6177C191.475 73.7327 188.7 71.818 186.592 69.2355L188.937 70.7049Z" fill="#4F3422"/>
<path d="M217.583 68.3146C224.455 73.8656 225.954 84.0029 234.4 87.9955C238.377 89.8805 241.851 83.9287 237.843 82.0437C234.177 80.3072 232.173 76.9528 230.17 73.5836C227.988 69.9175 225.776 66.1476 222.422 63.4314C220.967 62.2589 218.979 62.066 217.554 63.4611C216.337 64.6485 216.144 67.142 217.583 68.3146Z" fill="#4F3422"/>
<path d="M215.564 73.4354C221.501 77.7248 227.884 82.4744 229.991 89.851C231.104 93.7694 231.342 97.8659 232.44 101.784C233.346 105.035 234.681 108.181 236.314 111.12C243.542 124.107 256.099 133.295 267.305 142.601C275.216 149.161 283.142 155.721 291.053 162.282C293.591 164.389 297.242 160.738 294.674 158.616C287.683 152.827 280.707 147.039 273.717 141.25C267.409 136.026 260.967 130.92 254.912 125.384C249.657 120.575 244.67 115.335 241.078 109.116C239.327 106.059 237.962 102.838 237.116 99.4243C236.091 95.2982 235.884 90.979 234.444 86.9568C231.579 78.9567 224.767 73.7768 218.117 68.9678C215.461 67.0235 212.893 71.5059 215.564 73.4354Z" fill="#4F3422"/>
<path d="M214.688 76.4334C216.484 79.8175 217.716 83.4538 218.265 87.2386C218.874 91.4984 219.082 95.5503 220.507 99.6765C223.223 107.543 226.592 115.231 229.664 122.964C230.347 124.686 231.935 125.918 233.88 125.398C235.512 124.953 236.996 122.92 236.314 121.183C233.152 113.198 229.546 105.257 226.889 97.0939C225.553 93.0123 225.523 88.8416 224.781 84.6561C224.054 80.5596 222.57 76.6264 220.625 72.9603C218.547 69.0419 212.611 72.515 214.688 76.4334Z" fill="#4F3422"/>
<path d="M329.197 105.376C312.915 99.6615 300.626 85.0418 282.785 83.3943C277.234 82.8896 271.698 83.8544 266.162 84.1216C261.011 84.3739 255.831 84.1958 250.696 83.5872C246.822 83.1271 242.978 82.385 239.208 81.4054C239.06 81.0789 238.896 80.7672 238.733 80.4407C238.451 79.8767 238.169 79.3275 237.872 78.7783C238.288 79.0306 238.703 79.2681 239.134 79.5056C250.696 85.8284 263.92 84.6559 274.844 77.5612C278.228 75.3646 281.42 72.8562 284.611 70.3627C294.139 68.4184 304.024 68.2848 313.613 69.8581C316.863 70.3924 318.243 65.4202 314.978 64.8859C307.765 63.6985 300.522 63.3868 293.279 63.9805C298.934 60.2848 304.678 58.0139 311.639 57.7022C314.948 57.5538 314.993 52.4035 311.683 52.5371C305.375 52.8042 299.453 54.2736 293.947 57.435C289.746 59.8543 285.843 62.7783 282.028 65.7764C276.121 67.2458 270.303 69.2644 264.262 69.769C257.731 70.3182 250.755 69.6503 244.863 66.6076C239.995 64.0992 235.26 60.9972 230.629 58.0732C228.64 56.8265 226.637 55.5946 224.559 54.5111C227.616 54.7783 230.718 54.7931 233.88 54.4517C242.221 53.5612 249.642 50.2217 257.523 47.6688C266.8 44.6706 276.551 44.2699 285.976 46.8821C289.182 47.7727 290.533 42.8005 287.342 41.9099C277.813 39.268 267.661 39.3125 258.162 42.0732C248.618 44.8487 239.891 49.3163 229.739 49.5537C224.633 49.6725 219.675 48.9452 214.777 47.5203C210.132 46.1697 205.59 44.4628 200.766 43.7801C193.419 42.7411 183.92 44.3886 180.536 51.8988C178.696 55.9656 179.067 60.9972 180.61 65.1085C182.154 69.2495 186.473 72.3664 190.956 70.6002C194.013 69.398 192.707 64.3961 189.62 65.6132C185.82 67.1122 184.796 61.9174 184.544 59.231C184.232 55.7875 185.241 52.5371 188.299 50.6521C194.221 47.0157 201.612 48.8413 207.891 50.7708C206.302 51.9582 206.807 55.2977 209.449 55.5204C216.395 56.1141 221.976 58.6818 227.809 62.3478C232.41 65.2421 237.086 68.2699 241.88 70.8228C247.535 73.821 253.753 74.9341 260.106 75.0232C264.024 75.0677 267.765 74.4443 271.46 73.5835C268.997 75.1123 266.414 76.4332 263.624 77.2941C257.702 79.1345 251.349 79.0158 245.56 76.8043C235.972 73.1234 229.635 64.8265 221.175 59.4387C218.622 57.8061 213.991 55.3571 211.29 57.9545C208.766 56.9898 206.718 60.9972 209.271 62.7189C209.33 62.7634 209.39 62.808 209.464 62.8673C209.464 62.9119 209.464 62.9564 209.464 63.0009C208.499 63.0009 207.594 63.6391 207.134 64.5297C207.119 64.4851 207.104 64.4406 207.074 64.3961C206.362 62.8673 204.863 62.7931 203.75 63.4907C202.265 61.0862 197.931 62.4221 199.015 65.346C199.178 65.7913 199.356 66.2365 199.534 66.6967C197.887 66.5631 196.135 67.8098 196.818 69.7987C197.041 70.4369 197.308 71.0751 197.59 71.6985C196.358 74.8451 197.026 78.3924 199.074 81.3312C201.776 85.2051 205.56 87.9954 206.792 92.7747C208.084 97.7914 207.46 103.12 208.084 108.226C208.677 113.079 210.533 117.19 213.353 121.049C214.599 126.496 216.692 131.691 218.844 136.99C220.358 140.73 221.813 144.515 222.703 148.463C223.653 152.723 223.534 156.953 223.163 161.272C222.466 169.613 221.961 179.365 229.026 185.346C231.549 187.484 235.201 183.832 232.648 181.68C226.355 176.352 227.868 167.254 228.418 159.996C228.714 156.062 228.462 152.352 227.809 148.715C229.145 154.385 230.629 159.996 234.31 164.864C238.006 169.732 242.919 173.443 247.861 176.96C253.664 181.101 259.69 184.901 265.895 188.389C268.789 190.022 271.371 185.554 268.477 183.921C263.505 181.131 258.666 178.133 253.946 174.927C249.553 171.944 245.13 168.871 241.36 165.101C237.783 161.524 235.393 157.383 233.924 152.545C232.514 147.869 231.742 143.016 230.347 138.326C228.937 133.606 226.785 129.42 223.713 125.561C221.917 123.305 219.928 121.183 218.147 118.927C217.687 116.715 217.39 114.459 217.301 112.129C217.137 107.706 217.449 103.268 217.657 98.8452C221.471 103.743 225.657 108.374 230.169 112.708C231.431 126.066 231.49 139.721 238.421 151.684C242.058 157.947 247.327 162.92 254.169 165.413C257.301 166.556 258.637 161.569 255.535 160.441C243.334 155.988 238.392 141.769 236.833 129.984C236.299 125.962 236.002 121.925 235.705 117.888C240.573 122.4 245.427 126.986 249.39 132.315C252.121 135.996 254.377 139.988 255.846 144.337C257.434 149.042 258.473 153.925 260.744 158.378C265.108 166.986 273.865 173.161 283.379 174.586C286.629 175.075 288.024 170.103 284.744 169.613C276.536 168.382 269.234 163.484 265.345 156.077C263.074 151.728 262.199 146.816 260.566 142.229C259.126 138.177 257.152 134.348 254.674 130.83C249.731 123.81 243.379 117.992 237.13 112.159C236.432 111.506 235.75 110.853 235.052 110.2C234.904 108.804 234.755 107.409 234.562 106.014C233.642 99.424 231.861 93.1012 228.893 87.1939C232.084 89.4945 235.497 91.5576 239 93.4574C240.974 97.9695 243.052 102.422 245.843 106.489C251.245 114.37 258.815 120.352 266.755 125.517C275.097 130.934 283.869 135.372 291.023 142.407C293.709 145.049 296.188 147.825 298.088 151.09C300.21 154.712 301.724 158.66 303.312 162.534C304.559 165.561 309.546 164.27 308.299 161.198C305.494 154.341 302.778 147.662 297.82 142.051C291.171 134.541 282.978 129.42 274.473 124.27C266.206 119.253 257.924 113.732 251.868 106.044C249.716 103.298 247.965 100.329 246.407 97.2422C249.004 98.5038 251.601 99.706 254.154 100.908C263.164 105.138 272.277 109.695 279.371 116.849C282.934 120.441 285.947 124.522 289.212 128.367C292.566 132.315 296.306 135.788 300.418 138.934C304.381 141.977 308.462 145.227 312.856 147.602C315.646 149.101 318.288 150.571 320.9 152.411C323.616 154.326 326.169 149.843 323.483 147.944C321.138 146.296 318.793 144.827 316.225 143.55C312.989 141.932 310.065 139.676 307.156 137.569C303.015 134.586 298.978 131.424 295.475 127.684C292.017 124.003 289.019 119.906 285.694 116.107C274.221 103.031 257.924 97.7468 243.022 89.9101C242.651 89.0344 242.266 88.1735 241.894 87.2978C247.178 88.411 252.566 89.0789 257.954 89.3015C263.638 89.5242 269.204 88.9898 274.859 88.5743C279.831 88.218 284.611 88.4407 289.39 89.9398C293.531 91.231 297.39 93.2644 301.101 95.4611C309.902 100.656 318.095 106.905 327.832 110.318C330.978 111.461 332.314 106.474 329.197 105.376ZM206.674 82.5037C206.733 82.5186 206.792 82.5334 206.852 82.5334C206.941 82.6967 207.045 82.86 207.134 83.0232C206.97 82.86 206.822 82.6819 206.674 82.5037ZM209.85 77.398C208.989 75.7505 208.173 74.0733 207.401 72.3813C208.544 73.8803 209.449 75.4833 210.176 77.1902C210.176 77.2347 210.176 77.2941 210.176 77.3386C210.072 77.3535 209.969 77.3683 209.85 77.398ZM212.536 98.6522C212.418 95.6392 212.15 92.6411 211.2 89.7913C211.69 90.5483 212.18 91.3053 212.685 92.0474C212.714 94.2292 212.64 96.4555 212.536 98.6522ZM223.371 134.437C224.737 137.213 225.657 140.122 226.429 143.075C225.731 140.73 224.9 138.4 223.935 136.04C223.624 135.283 223.327 134.526 223.015 133.769C223.134 133.992 223.252 134.214 223.371 134.437ZM229.071 104.263C225.419 100.418 221.961 96.3962 218.859 92.0622C218.503 91.5576 218.132 91.0529 217.79 90.5335C217.746 89.1086 217.657 87.6837 217.494 86.244C217.301 84.5817 217.034 82.9045 216.662 81.2421C216.841 81.2273 217.019 81.2125 217.197 81.1976C217.835 81.1679 218.488 81.1976 219.126 81.2421C220.21 82.7264 221.249 84.2551 222.213 85.8284C225.731 91.5724 227.868 97.7468 229.071 104.263ZM224.692 76.9824C221.635 73.8061 219.067 70.2143 217.345 66.0881C217.182 65.7171 216.974 65.4054 216.722 65.153C216.588 64.6039 216.41 64.0844 216.202 63.5798C222.763 67.6466 228.195 72.6633 232.217 79.3126C229.739 78.4963 227.245 77.6206 224.692 76.9824Z" fill="#4F3422"/>
<path d="M110.941 220.033C138.251 230.601 167.98 223.313 193.998 212.582C201.583 209.45 209.034 206.037 216.499 202.608C217.301 202.237 216.603 201.049 215.802 201.421C183.668 216.204 146.711 232.426 111.312 218.712C110.48 218.385 110.109 219.706 110.941 220.033Z" fill="#4F3422"/>
<path d="M154.697 213.355C154.993 216.457 155.572 219.499 156.492 222.468C156.745 223.314 158.081 222.958 157.813 222.097C156.938 219.232 156.344 216.323 156.062 213.34C155.988 212.479 154.607 212.464 154.697 213.355Z" fill="#4F3422"/>
<path d="M175.193 208.916C176.203 211.692 177.212 214.482 178.236 217.258C178.533 218.089 179.869 217.733 179.557 216.887C178.548 214.111 177.538 211.321 176.514 208.545C176.217 207.714 174.882 208.07 175.193 208.916Z" fill="#4F3422"/>
<path d="M162.296 212.404C162.682 215.328 163.306 218.193 164.181 220.998C164.448 221.844 165.769 221.488 165.502 220.627C164.656 217.925 164.033 215.194 163.662 212.389C163.558 211.543 162.178 211.528 162.296 212.404Z" fill="#4F3422"/>
<path d="M161.241 217.866C164.002 217.436 166.555 216.426 168.87 214.868C169.597 214.378 168.915 213.191 168.172 213.681C165.931 215.18 163.512 216.115 160.87 216.53C159.994 216.679 160.365 218 161.241 217.866Z" fill="#4F3422"/>
<path d="M140.076 139.395C144.469 146.045 152.128 149.889 160.098 149.369C160.974 149.31 160.989 147.93 160.098 147.989C152.618 148.479 145.404 144.961 141.263 138.698C140.788 137.956 139.586 138.653 140.076 139.395Z" fill="#4F3422"/>
<path d="M171.795 85.3986C164.641 76.5229 152.129 73.1389 140.923 75.2019C129.732 77.265 119.832 84.0925 112.054 92.4636C104.277 100.85 98.3845 110.764 92.5366 120.62C87.6535 106.133 89.4197 97.6733 91.3492 82.4747C84.5811 96.5007 65.6571 101.71 50.2359 102.868C49.0485 110.512 52.581 115.736 55.1339 123.024C58.1024 131.499 61.2638 140.018 66.3399 147.41C71.416 154.801 79.3418 166.319 88.0394 168.412C97.583 170.712 107.809 167.759 116.166 162.534C124.522 157.325 130.681 144.709 137.42 137.48C143.876 130.549 150.333 123.618 156.789 116.701C163.082 109.948 171.112 102.586 180.121 104.397C181.22 104.248 179.275 102.734 178.949 103.803C178.622 104.872 179.765 105.733 180.656 106.386C184.915 109.517 186.355 115.143 189.027 119.714C193.064 126.616 200.01 131.187 206.704 135.506C220.774 144.59 236.018 154.015 252.745 153.377C263.016 152.976 272.737 148.761 282.162 144.62C294.422 139.232 306.667 133.859 318.927 128.471C308.73 117.918 302.081 103.952 300.285 89.3319C285.368 98.5786 269.027 105.495 252.032 109.755C246.259 111.195 239.995 112.308 234.518 110.007C231.209 108.612 228.507 106.104 225.88 103.64C218.711 96.9014 211.26 90.0294 202.029 86.6454C192.811 83.2613 181.279 84.2409 174.704 91.6027L171.795 85.3986Z" fill="#F2B700"/>
<path d="M221.249 168.946C222.986 180.256 193.569 194.148 155.557 199.966C117.546 205.784 85.3233 201.332 83.5868 190.022C81.8502 178.712 111.268 164.82 149.279 159.001C187.29 153.168 219.513 157.621 221.249 168.946Z" fill="#4F3422"/>
<path d="M161.805 111.358C158.644 100.122 162.666 90.1034 166.258 79.9364C165.605 79.6693 164.922 79.4021 164.225 79.1201L162.087 79.5209C157.026 84.3743 154.176 89.3465 149.516 96.2036C139.319 111.18 130.577 129.361 125.457 143.818C122.458 152.278 119.772 162.267 117.516 172.597C116.982 175.016 116.477 177.465 116.002 179.929C142.288 184.768 169.108 185.555 194.859 175.996C197.486 175.016 200.084 173.978 202.666 172.894C195.156 154.579 189.442 135.417 187.854 119.996C185.716 121.005 183.416 121.777 180.922 122.267C172.715 123.885 164.343 119.536 161.805 111.358Z" fill="white"/>
<path d="M187.453 109.576C187.498 108.404 187.587 107.276 187.705 106.178C189.145 93.1905 187.78 88.6933 166.258 79.9512C162.666 90.1033 158.644 100.122 161.805 111.372C164.329 119.551 172.715 123.899 180.922 122.282C183.416 121.792 185.717 121.02 187.854 120.011C187.483 116.285 187.334 112.782 187.453 109.576Z" fill="#926247"/>
<path d="M116.016 179.93C113.79 191.255 112.083 202.668 111.029 212.746C125.619 217.169 141.575 215.388 156.031 212.895C175.683 209.199 194.666 202.832 212.328 194.03C209.82 189.073 207.371 183.893 205.07 178.594C204.254 176.709 203.453 174.809 202.666 172.895C200.098 173.978 197.501 175.017 194.859 175.997C169.122 185.54 142.302 184.768 116.016 179.93Z" fill="#926247"/>
<path d="M164.24 79.1201C147.498 106 129.88 138.297 131.884 172.078C115.275 171.41 94.0359 175.996 83.5127 188.879C90.548 160.159 121.479 100.33 144.812 81.1238L164.24 79.1201Z" fill="#F2B700"/>
<path d="M182.688 87.5953C185.924 113.169 185.449 139.217 181.278 164.642C189.842 159.596 198.273 158.096 207.475 159.403C210.444 159.833 213.605 160.531 215.98 162.356C219.364 164.968 221.427 166.527 221.59 169.525C216.395 139.425 204.774 109.918 185.672 87.5508L182.688 87.5953Z" fill="#F2B700"/>
<path d="M320.159 103.655C325.146 114.846 325.131 125.74 320.114 127.967C315.112 130.193 307.008 122.92 302.021 111.729C297.034 100.538 297.049 89.6438 302.066 87.4174C307.068 85.1911 315.172 92.4638 320.159 103.655Z" fill="#4F3422"/>
<path d="M77.4266 101.769C66.3542 110.141 54.0796 112.575 50.0276 107.202C45.9756 101.829 51.6603 90.6971 62.7326 82.326C73.805 73.9549 86.0796 71.5208 90.1316 76.8937C94.1984 82.2518 88.4989 93.3835 77.4266 101.769Z" fill="#4F3422"/>
<path d="M300.878 95.5655C302.05 91.3948 303.742 85.5321 304.915 81.3614C305.939 77.725 307.438 73.5692 311.015 72.367C312.603 71.8326 314.325 72.0107 315.987 72.1888C319.386 72.5451 322.77 72.9161 326.169 73.2723C326.971 73.3614 327.802 73.4504 328.47 73.8957C330.295 75.1128 329.806 77.8735 329.108 79.9514C330.904 78.675 333.576 80.367 334.095 82.5043C334.615 84.6416 333.724 86.8382 332.848 88.8716C334.511 88.1444 336.396 89.9106 336.514 91.7214C336.633 93.5321 335.609 95.1945 334.615 96.7232C336.218 96.842 337.42 98.4004 337.628 100.003C337.821 101.592 337.242 103.18 336.544 104.634C332.804 112.337 325.219 118.037 316.789 119.477C315.171 119.759 313.479 119.877 311.95 119.284C310.14 118.586 308.833 116.983 307.735 115.38C303.757 109.532 301.368 102.616 300.878 95.5655Z" fill="#926247"/>
<path d="M338.341 104.114C333.147 102.229 323.811 100.226 321.362 107.365C320.486 109.903 321.896 111.61 324.345 112.159C327.091 112.767 329.926 111.639 331.662 109.487C332.197 108.819 331.321 107.869 330.683 108.508C328.634 110.63 327.15 113.049 326.185 115.84C325.889 116.671 327.224 117.042 327.506 116.211C328.397 113.643 329.763 111.432 331.647 109.487C331.321 109.161 330.994 108.834 330.668 108.508C329.228 110.303 327.002 111.313 324.686 110.823C321.109 110.081 322.712 106.623 324.79 105.124C328.768 102.259 333.8 103.921 337.955 105.42C338.816 105.747 339.173 104.411 338.341 104.114Z" fill="#4F3422"/>
<path d="M337.673 95.9964C331.677 92.4937 323.454 93.6959 318.809 98.9204C316.953 100.998 314.979 104.753 317.013 107.351C318.438 109.162 321.584 109.31 322.697 107.143C323.098 106.356 321.911 105.659 321.51 106.445C320.634 108.167 318.274 107.232 317.725 105.748C317.161 104.249 318.022 102.408 318.809 101.176C320.041 99.2618 321.881 97.7775 323.914 96.7831C328.055 94.7645 333.013 94.8387 336.991 97.169C337.748 97.6291 338.43 96.4417 337.673 95.9964Z" fill="#4F3422"/>
<path d="M312.024 94.5707C309.13 93.0717 309.694 89.5837 311.327 87.3722C312.692 85.5169 314.607 84.0178 316.551 82.8008C320.529 80.3369 325.085 79.1495 329.731 79.1941C330.622 79.2089 330.622 77.8286 329.731 77.8137C323.527 77.7544 317.412 79.8471 312.692 83.9288C309.427 86.7488 305.983 92.9826 311.312 95.7581C312.113 96.1737 312.811 94.9863 312.024 94.5707Z" fill="#4F3422"/>
<path d="M312.009 80.3071C314.651 81.5242 317.501 81.4796 320.098 80.1438C320.885 79.7431 320.187 78.5557 319.401 78.9565C317.278 80.0548 314.874 80.1142 312.707 79.1197C311.905 78.7487 311.208 79.9361 312.009 80.3071Z" fill="#4F3422"/>
<path d="M323.275 73.8065C324.433 76.018 327.535 76.4781 329.346 74.801C329.999 74.1924 329.019 73.2277 328.366 73.8214C327.179 74.9197 325.19 74.5041 324.463 73.0941C324.047 72.3223 322.86 73.0199 323.275 73.8065Z" fill="#4F3422"/>
<path d="M310.866 94.1554C313.345 92.597 314.176 89.2723 312.677 86.7491C312.232 85.9921 311.044 86.6749 311.489 87.4467C312.603 89.3168 312.024 91.8103 310.168 92.9829C309.426 93.443 310.124 94.6304 310.866 94.1554Z" fill="#4F3422"/>
<path d="M319.075 107.187C321.272 105.317 321.658 101.904 319.906 99.6178C319.372 98.9203 318.185 99.603 318.719 100.315C320.129 102.156 319.877 104.724 318.111 106.223C317.428 106.787 318.393 107.751 319.075 107.187Z" fill="#4F3422"/>
<path d="M323.157 109.576C325.473 109.354 327.328 107.32 327.135 104.946C327.061 104.07 325.695 104.055 325.755 104.946C325.874 106.504 324.76 108.033 323.143 108.196C322.282 108.285 322.267 109.665 323.157 109.576Z" fill="#4F3422"/>
<path d="M86.6592 82.7272C86.9115 75.974 91.9431 71.6103 90.8744 64.9016C90.5033 62.5565 84.5516 57.6734 82.9486 55.8181C81.3456 53.9628 78.2881 53.0129 76.2844 54.3784C75.6462 54.8236 75.0673 55.4915 74.2658 55.5064C73.5979 55.5212 73.0191 55.0463 72.4551 54.69C70.3326 53.3097 67.3938 53.2207 65.2565 54.4526C63.1192 55.6845 61.8873 58.1928 62.2584 60.5825C61.1155 58.9498 58.3548 59.0092 56.8558 60.3153C55.3715 61.6214 54.9263 63.6697 54.8669 65.614C53.442 63.0463 48.9596 63.7142 47.416 66.1483C45.8724 68.5825 46.3474 71.7142 46.9559 74.5491C48.6479 82.4898 50.904 90.3414 53.8279 97.9852C55.0005 101.058 56.5886 104.427 59.7797 105.703C63.2231 107.084 67.0673 105.436 70.0654 103.477C75.943 99.6327 85.1898 91.5733 86.6592 82.7272Z" fill="#926247"/>
<path d="M73.643 55.3281C69.9027 59.0387 67.335 63.625 66.1327 68.7604C66.0585 69.0721 66.1921 69.3689 66.4444 69.5322C69.3387 71.4469 72.0845 69.6658 74.3109 67.6769C76.5372 65.688 79.283 63.4617 80.7673 60.8346C80.3517 60.6565 79.9361 60.4784 79.5057 60.3003C77.4574 66.9051 72.8415 75.0832 75.142 82.1482C75.4092 82.9942 76.745 82.6232 76.463 81.7771C75.3053 78.215 76.3739 74.2669 77.4129 70.7938C78.437 67.3801 79.7728 64.0554 80.8415 60.6565C81.079 59.9144 79.9658 59.4543 79.5799 60.1222C78.4667 62.0814 76.4778 63.7437 74.86 65.2725C72.8563 67.1723 70.1105 70.2892 67.142 68.3151C67.2459 68.5675 67.3498 68.8346 67.4537 69.0869C68.5966 64.1741 71.0159 59.8253 74.6077 56.2632C75.2459 55.6843 74.2663 54.7047 73.643 55.3281Z" fill="#4F3422"/>
<path d="M54.8654 66.6535C58.3979 69.1618 61.8117 73.6591 61.7968 78.2157C61.782 80.3678 60.0899 82.5496 57.8191 81.0357C57.0324 80.5162 56.4387 78.9429 55.9786 78.1414C54.717 75.9745 53.4554 73.7926 52.1938 71.6257C51.7485 70.8539 50.5612 71.5514 51.0064 72.3232C52.1344 74.2527 53.2476 76.1823 54.3756 78.1118C55.2068 79.5366 55.9489 81.4216 57.3293 82.416C59.0213 83.6479 61.2625 82.9058 62.3757 81.2435C63.9935 78.839 62.91 75.4105 61.8562 73.0208C60.4907 69.9485 58.294 67.4104 55.563 65.4661C54.8358 64.9614 54.1382 66.1488 54.8654 66.6535Z" fill="#4F3422"/>
<path d="M62.6154 77.5471C63.8473 79.3875 66.326 81.4803 68.1219 79.061C70.1108 76.3894 70.1108 72.4265 68.9976 69.4283C68.6859 68.612 67.365 68.9682 67.6767 69.7994C68.3891 71.714 68.6117 73.7177 68.0922 75.7215C67.9141 76.4339 67.5282 78.0517 66.8306 78.497C65.48 79.343 64.4113 77.74 63.8028 76.8495C63.313 76.1222 62.1108 76.8049 62.6154 77.5471Z" fill="#4F3422"/>
<path d="M62.0666 61.0128C63.8031 62.2002 65.8959 63.7586 66.5935 65.8365C66.8755 66.6677 68.1965 66.3115 67.9145 65.4655C67.0981 63.0165 64.8273 61.2354 62.7642 59.8254C62.0369 59.3207 61.3542 60.523 62.0666 61.0128Z" fill="#4F3422"/>
<path d="M65.94 83.1881C68.5374 86.0824 70.556 89.3625 71.9363 92.9989C72.248 93.8152 73.5838 93.459 73.2573 92.6279C71.7879 88.7688 69.6654 85.2809 66.9048 82.2085C66.3111 81.5555 65.3463 82.5351 65.94 83.1881Z" fill="#4F3422"/>
<path d="M61.0558 74.4607C58.6068 75.8262 57.7015 78.854 58.8146 81.3772C59.1709 82.1787 60.3582 81.4811 60.002 80.6796C59.1857 78.8243 60.0169 76.6128 61.7534 75.6481C62.5252 75.2176 61.8425 74.0302 61.0558 74.4607Z" fill="#4F3422"/>
<path d="M68.1799 71.1657C65.8348 72.6203 64.499 75.2622 64.7958 78.0229C64.8849 78.8986 66.2652 78.8986 66.1762 78.0229C65.9239 75.752 66.9183 73.5702 68.8775 72.3531C69.6196 71.8781 68.922 70.6908 68.1799 71.1657Z" fill="#4F3422"/>
<path d="M66.9489 66.8309C67.9137 68.3448 69.9471 68.2113 71.0751 66.9497C72.5593 65.2725 72.4999 62.4524 72.1437 60.4042C71.9953 59.5285 70.6743 59.8996 70.8228 60.7753C71.0306 62.0517 71.0602 63.4023 70.704 64.6639C70.4666 65.5248 69.1011 67.6621 68.1363 66.1482C67.6613 65.3912 66.474 66.074 66.9489 66.8309Z" fill="#4F3422"/>
<path d="M57.8954 63.2988C58.6969 62.6606 59.4984 62.0372 60.2999 61.399C60.5967 61.1615 60.5374 60.6717 60.2999 60.4194C60.0179 60.1226 59.6171 60.1968 59.3203 60.4194C58.5188 61.0576 57.7173 61.681 56.9158 62.3192C56.619 62.5567 56.6784 63.0465 56.9158 63.2988C57.2127 63.5957 57.5986 63.5215 57.8954 63.2988Z" fill="white"/>
<path d="M66.6363 57.8062C67.0074 57.2125 67.6307 56.7821 68.3283 56.7079C68.6994 56.6634 69.0111 56.4259 69.0111 56.0251C69.0111 55.6838 68.6994 55.2979 68.3283 55.3424C67.1261 55.476 66.102 56.0845 65.4489 57.1235C64.974 57.8656 66.1613 58.5483 66.6363 57.8062Z" fill="white"/>
<path d="M78.2291 56.2783C78.3776 56.1447 78.8228 56.1893 78.897 56.397C79.0306 56.7384 79.3572 56.9759 79.7431 56.872C80.0696 56.783 80.3516 56.3674 80.218 56.026C79.7579 54.8238 78.2143 54.4082 77.2495 55.2987C76.5965 55.9073 77.5761 56.872 78.2291 56.2783Z" fill="white"/>
<path d="M328.618 89.8365C329.033 90.1185 329.464 90.3857 329.879 90.6677C330.191 90.8755 330.636 90.727 330.814 90.4154C331.007 90.074 330.874 89.6732 330.562 89.4803C330.146 89.1983 329.716 88.9311 329.3 88.6491C328.989 88.4413 328.543 88.5897 328.365 88.9014C328.172 89.228 328.306 89.6287 328.618 89.8365Z" fill="white"/>
<path d="M331.662 97.347C331.796 98.0445 331.944 98.7421 332.078 99.4397C332.256 100.301 333.577 99.9444 333.399 99.0687C333.265 98.3711 333.117 97.6735 332.983 96.9759C332.805 96.115 331.484 96.4713 331.662 97.347Z" fill="white"/>
<path d="M334.571 107.187C334.764 107.603 334.734 108.063 334.511 108.464C334.081 109.235 335.268 109.933 335.699 109.161C336.174 108.315 336.174 107.365 335.758 106.504C335.372 105.688 334.185 106.386 334.571 107.187Z" fill="white"/>
<path d="M317.695 80.7822C317.844 81.4798 317.977 82.1774 318.126 82.8749C318.304 83.7358 319.625 83.3796 319.447 82.5039C319.298 81.8063 319.165 81.1087 319.016 80.4111C318.838 79.5503 317.517 79.9213 317.695 80.7822Z" fill="white"/>
<path d="M90.5765 167.774C101.144 140.746 116.328 115.648 135.341 93.7254C135.92 93.0575 134.955 92.0779 134.361 92.7458C115.185 114.861 99.9124 140.137 89.2556 167.403C88.929 168.234 90.25 168.59 90.5765 167.774Z" fill="#4F3422"/>
<path d="M127.519 92.8788C127.015 95.877 126.51 98.8603 126.02 101.858C125.872 102.719 127.208 103.09 127.341 102.229C127.846 99.2313 128.351 96.248 128.84 93.2499C128.989 92.3742 127.668 92.0031 127.519 92.8788Z" fill="#4F3422"/>
<path d="M139.26 76.953C138.577 80.0402 138.31 83.1571 138.518 86.3185C138.577 87.1942 139.943 87.2091 139.898 86.3185C139.705 83.2759 139.928 80.2925 140.596 77.3241C140.774 76.4484 139.453 76.0773 139.26 76.953Z" fill="#4F3422"/>
<path d="M215.742 141.398C212.522 131.246 209.286 121.094 206.05 110.927C205.783 110.081 204.447 110.452 204.729 111.298C207.965 121.45 211.186 131.602 214.421 141.769C214.689 142.615 216.009 142.244 215.742 141.398Z" fill="#4F3422"/>
<path d="M209.494 91.4693C208.232 94.7792 206.629 97.9257 204.715 100.909C204.24 101.651 205.427 102.349 205.902 101.607C207.876 98.5194 209.509 95.2541 210.815 91.8404C211.141 91.0092 209.82 90.653 209.494 91.4693Z" fill="#4F3422"/>
<path d="M281.999 99.1576C279.876 106.935 282.251 114.683 285.709 121.688C288.485 127.284 291.587 134.839 297.836 137.302C298.652 137.629 299.023 136.293 298.207 135.981C292.478 133.711 289.465 126.141 286.912 120.991C283.602 114.326 281.316 106.92 283.335 99.5287C283.557 98.6678 282.221 98.3116 281.999 99.1576Z" fill="#4F3422"/>
<path d="M56.2036 124.404C60.0329 124.849 63.6247 123.291 67.1275 121.97C70.0366 120.871 72.9309 119.684 75.7361 118.333C81.302 115.632 86.66 112.129 90.1183 106.89C90.6081 106.148 89.4207 105.465 88.9309 106.192C85.6062 111.224 80.3817 114.548 75.0385 117.146C72.3372 118.452 69.5617 119.595 66.7565 120.649C63.3576 121.94 59.8993 123.469 56.1887 123.038C55.3279 122.934 55.3279 124.3 56.2036 124.404Z" fill="#4F3422"/>
<path d="M153.893 41.2574C155.822 42.3558 157.752 43.4393 159.666 44.5376C161.462 45.5617 163.08 42.7862 161.284 41.7621C159.355 40.6637 157.425 39.5803 155.511 38.4819C153.715 37.4578 152.097 40.2333 153.893 41.2574Z" fill="white"/>
<path d="M160.691 33.123C161.938 34.5479 163.185 35.9579 164.446 37.3828C165.812 38.9412 168.083 36.6555 166.717 35.1119C165.47 33.687 164.224 32.277 162.962 30.8521C161.597 29.3085 159.326 31.5794 160.691 33.123Z" fill="white"/>
<path d="M168.083 27.0076C168.632 28.6997 169.181 30.3769 169.716 32.0689C170.354 34.0281 173.441 33.1821 172.818 31.2229C172.269 29.5308 171.719 27.8537 171.185 26.1616C170.547 24.1876 167.445 25.0336 168.083 27.0076Z" fill="white"/>
<path d="M160.41 79.684C158.229 73.4799 155.052 67.8398 151.119 63.2238C162.459 62.17 174.051 64.9901 184.351 71.2832C192.589 76.3296 200.232 83.9289 204.21 94.3482C197.62 93.3983 190.941 93.7991 184.485 95.5356L160.41 79.684Z" fill="#F2B700"/>
<path d="M167.979 83.8252L203.957 53.4727C203.957 53.4727 213.011 75.944 200.543 89.3021L194.295 81.5989C194.295 81.5989 190.554 89.9551 186.859 98.1481C183.4 105.822 173.308 107.632 167.4 101.651C167.326 101.577 167.237 101.488 167.163 101.413C162.28 96.4115 162.636 88.3225 167.979 83.8252Z" fill="#926247"/>
<path d="M183.668 62.3631C183.876 65.1832 186.325 67.2908 189.145 67.0978C191.965 66.89 194.073 64.441 193.88 61.621C193.672 58.8009 191.223 56.6933 188.403 56.8863C185.583 57.0941 183.461 59.5431 183.668 62.3631Z" fill="#926247"/>
<path d="M190.392 63.8029C189.65 62.0812 188.908 60.3595 188.136 58.6526C187.765 57.8512 186.592 58.5487 186.948 59.3502C187.72 61.0571 188.462 62.7788 189.204 64.5005C189.561 65.302 190.748 64.6044 190.392 63.8029Z" fill="#4F3422"/>
<path d="M194.296 81.5842L186.622 98.4451L190.095 75.5879L194.296 81.5842Z" fill="#4F3422"/>
<path d="M194.874 71.1504C197.397 74.1485 200.841 76.5233 203.572 79.2692L202.666 81.7775C200.87 80.2191 198.911 78.8684 196.848 77.7107C195.735 75.0242 195.126 72.3378 194.874 71.1504Z" fill="#4F3422"/>
<path d="M202.681 81.777L201.805 84.1666C199.579 83.0386 197.961 80.3818 196.848 77.6953C198.911 78.8679 200.885 80.2185 202.681 81.777Z" fill="#FB7185"/>
<path d="M194.874 71.1499C194.799 70.7492 194.755 70.5117 194.755 70.5117C198.629 74.2223 198.525 74.1481 204.135 77.7251L203.571 79.2687C200.84 76.5229 197.412 74.1481 194.874 71.1499Z" fill="white"/>
<path d="M204.492 76.8938C202.221 75.4393 200.025 73.9254 197.947 72.2185C197.175 71.5803 195.438 69.6062 194.444 71.0905C193.954 71.8177 194.414 73.0645 194.578 73.8066C194.889 75.276 195.32 76.7157 195.973 78.0664C197.22 80.6786 198.897 83.3057 201.479 84.7751C202.251 85.2204 202.949 84.033 202.177 83.5877C199.921 82.2964 198.451 79.9959 197.338 77.7102C196.774 76.5525 196.373 75.3651 196.077 74.1183C195.973 73.673 195.646 72.9309 195.75 72.5153C195.884 71.9365 195.335 72.2482 196.047 72.4263C196.834 72.6192 198.051 74.0886 198.719 74.5933C200.351 75.8549 202.088 76.9829 203.824 78.1109C204.537 78.571 205.234 77.3836 204.492 76.8938Z" fill="#FB7185"/>
<path d="M205.116 66.0585C205.917 69.1754 206.526 72.4853 206.719 75.7061C207.06 75.5131 207.401 75.3053 207.758 75.1124C206.63 74.4445 205.501 73.7914 204.373 73.1235C203.617 72.6782 202.919 73.8656 203.676 74.3109C204.804 74.9788 205.932 75.6318 207.06 76.2997C207.49 76.5521 208.129 76.2404 208.099 75.7061C207.891 72.3665 207.268 68.9231 206.437 65.6875C206.229 64.8266 204.893 65.1977 205.116 66.0585Z" fill="#4F3422"/>
<path d="M174.273 122.148C175.728 117.398 175.772 112.515 174.422 107.736C174.184 106.89 172.849 107.246 173.101 108.107C174.392 112.678 174.333 117.25 172.952 121.777C172.685 122.637 174.006 122.994 174.273 122.148Z" fill="#4F3422"/>
<path d="M165.62 198.023C165.65 199.284 165.472 200.754 165.754 202C165.932 202.787 166.57 203.321 167.401 203.232C168.129 203.158 168.841 202.594 169.049 201.882C169.39 200.783 168.722 199.715 168.099 198.869C167.579 198.171 166.377 198.854 166.912 199.566C167.253 200.026 167.787 200.635 167.758 201.243C167.743 201.57 167.357 202.089 167.119 201.733C166.882 201.377 167.045 200.442 167.045 200.026C167.03 199.358 167.015 198.705 167.001 198.037C166.986 197.132 165.605 197.132 165.62 198.023Z" fill="#4F3422"/>
<path d="M196.79 64.7829C198.749 65.2134 200.456 66.1336 201.881 67.5585C202.504 68.1818 203.484 67.2171 202.861 66.5789C201.287 64.9907 199.343 63.9221 197.161 63.4471C196.3 63.269 195.929 64.59 196.79 64.7829Z" fill="#4F3422"/>
<path d="M197.487 66.0888C198.258 66.4747 199.03 66.8606 199.802 67.2317C200.604 67.6324 201.212 66.5489 200.5 66.0443C199.936 65.6435 199.357 65.2428 198.793 64.8421C198.065 64.3374 197.383 65.5248 198.095 66.0295C198.659 66.4302 199.238 66.8309 199.802 67.2317C200.04 66.8309 200.262 66.445 200.5 66.0443C199.728 65.6584 198.956 65.2725 198.184 64.9014C197.383 64.5007 196.685 65.6881 197.487 66.0888Z" fill="#4F3422"/>
<path d="M200.558 59.4841C201.701 59.0389 202.903 59.2615 203.779 60.1224C204.402 60.7457 205.382 59.781 204.758 59.1428C203.571 57.9554 201.79 57.5398 200.202 58.1483C199.37 58.4749 199.727 59.8107 200.558 59.4841Z" fill="#4F3422"/>
<path d="M249.271 74.4599C253.709 74.4599 253.753 67.5879 249.315 67.5879C244.892 67.5731 244.848 74.4599 249.271 74.4599Z" fill="#FB7185"/>
<path d="M266.918 166.705C271.356 166.705 271.401 159.833 266.963 159.833C262.54 159.818 262.495 166.705 266.918 166.705Z" fill="#FB7185"/>
<path d="M258.22 76.0771C262.658 76.0771 262.703 69.2051 258.265 69.2051C253.827 69.1903 253.782 76.0771 258.22 76.0771Z" fill="#9BB167"/>
<path d="M312.114 147.262C316.552 147.262 316.597 140.39 312.159 140.39C307.736 140.39 307.691 147.262 312.114 147.262Z" fill="#9BB167"/>
<path d="M251.868 180.716C256.306 180.716 256.351 173.844 251.913 173.844C247.49 173.844 247.445 180.716 251.868 180.716Z" fill="#9BB167"/>
<path d="M242.265 169.45C242.116 169.614 241.968 169.777 241.805 169.925C241.196 170.564 240.81 171.439 240.81 172.315C240.795 172.79 240.884 173.235 241.107 173.651C241.241 174.081 241.493 174.467 241.834 174.779C242.487 175.372 243.333 175.803 244.224 175.773C245.144 175.744 246.05 175.432 246.688 174.749C246.836 174.586 246.985 174.423 247.148 174.274C247.756 173.636 248.142 172.76 248.142 171.885C248.157 171.41 248.068 170.964 247.845 170.549C247.712 170.118 247.46 169.732 247.118 169.421C246.465 168.827 245.619 168.397 244.729 168.426C243.823 168.456 242.903 168.768 242.265 169.45Z" fill="#A688FD"/>
<path d="M241.198 70.4814C245.636 70.4814 245.68 63.6094 241.242 63.6094C236.804 63.5946 236.76 70.4814 241.198 70.4814Z" fill="#A688FD"/>
<path d="M303.016 68.9541C307.454 68.9541 307.499 62.0821 303.061 62.0821C298.623 62.0672 298.578 68.9541 303.016 68.9541Z" fill="#A688FD"/>
<path d="M232.189 99.3056C236.627 99.3056 236.671 92.4336 232.233 92.4336C227.81 92.4336 227.766 99.3056 232.189 99.3056Z" fill="#FB7185"/>
<path d="M258.385 49.3613C262.823 49.3613 262.867 42.4893 258.429 42.4893C254.006 42.4893 253.947 49.3613 258.385 49.3613Z" fill="#FB7185"/>
<path d="M34.4141 107.662C35.2602 123.306 39.416 138.564 46.6442 152.471C47.0598 153.258 48.2472 152.56 47.8316 151.774C40.7221 138.089 36.6108 123.054 35.7796 107.662C35.75 106.787 34.3696 106.772 34.4141 107.662Z" fill="#C9C7C5"/>
<path d="M228.746 31.7578C237.963 27.1715 247.952 24.4405 258.223 23.7133C259.098 23.6539 259.113 22.2735 258.223 22.3329C247.699 23.075 237.488 25.8654 228.048 30.5556C227.247 30.9712 227.944 32.1585 228.746 31.7578Z" fill="#C9C7C5"/>
<path d="M234.831 17.8659C249.584 14.185 264.768 12.7008 279.952 13.4578C280.842 13.5023 280.827 12.1219 279.952 12.0774C264.649 11.3205 249.332 12.8195 234.46 16.5301C233.599 16.7528 233.97 18.0886 234.831 17.8659Z" fill="#C9C7C5"/>
<path d="M266.459 198.72C281.242 197.621 296.485 192.486 306.028 180.567C306.577 179.885 305.613 178.905 305.049 179.588C295.728 191.224 280.9 196.271 266.459 197.339C265.583 197.399 265.583 198.779 266.459 198.72Z" fill="#C9C7C5"/>
<path d="M297.614 197.71C308.034 194.148 316.687 186.578 321.57 176.693C321.956 175.907 320.769 175.209 320.383 175.996C315.663 185.554 307.351 192.916 297.258 196.374C296.427 196.671 296.783 197.992 297.614 197.71Z" fill="#C9C7C5"/>
<path d="M140.165 131.795C139.556 139.677 146.858 144.011 153.389 146.103C154.235 146.371 154.591 145.05 153.76 144.783C147.808 142.868 140.996 139.053 141.545 131.795C141.604 130.92 140.224 130.92 140.165 131.795Z" fill="#4F3422"/>
<path d="M176.499 149.428C179.319 149.309 181.976 148.523 184.38 147.053C185.137 146.593 184.44 145.406 183.683 145.866C181.471 147.216 179.082 147.944 176.499 148.048C175.608 148.077 175.608 149.458 176.499 149.428Z" fill="#4F3422"/>
<path d="M184.039 63.0305C177.033 59.1567 176.291 49.806 182.228 44.6112C189.026 38.6742 198.184 41.1084 205.115 45.2939C208.084 47.0899 211.631 47.7132 214.985 48.4553C217.746 49.0639 220.536 49.5537 223.356 49.8654C226.666 50.2216 229.991 50.088 233.301 50.4294C234.176 50.5184 234.176 49.1381 233.301 49.049C230.392 48.7522 227.438 48.8709 224.529 48.6038C222.021 48.3811 219.527 47.9804 217.048 47.4906C213.59 46.793 209.553 46.1993 206.451 44.4924C203.601 42.934 201.048 41.2865 197.872 40.4256C194.8 39.5945 191.534 39.3867 188.403 40.0546C183.341 41.1381 178.651 44.8338 177.182 49.9099C175.579 55.4461 178.399 61.4721 183.356 64.2179C184.113 64.6483 184.811 63.461 184.039 63.0305Z" fill="#4F3422"/>
<path d="M238.808 86.4379C242.251 90.668 248.114 90.5196 252.908 92.0335C259.038 93.963 264.367 97.8962 268.137 103.091C268.656 103.803 269.843 103.121 269.324 102.393C265.925 97.7181 261.413 94.0075 256.07 91.7515C250.949 89.5845 243.498 90.0743 239.773 85.4732C239.224 84.7756 238.244 85.7552 238.808 86.4379Z" fill="#4F3422"/>
<path d="M227.393 150.022C227.407 155.113 227.437 160.649 230.124 165.161C232.276 168.783 235.971 171.425 240.291 171.306C241.181 171.276 241.181 169.911 240.291 169.926C229.901 170.208 228.803 157.547 228.773 150.022C228.758 149.146 227.393 149.146 227.393 150.022Z" fill="#4F3422"/>
<path d="M220.716 54.7047C225.985 57.2872 232.055 60.0924 238.007 58.1926C240.916 57.2576 243.602 55.5062 246.185 53.918C249.198 52.0924 252.107 50.1332 254.942 48.0553C255.654 47.5358 254.972 46.3484 254.244 46.8679C249.658 50.2074 244.82 53.5618 239.684 56.0108C233.391 59.0089 227.202 56.367 221.398 53.5173C220.612 53.1314 219.914 54.3039 220.716 54.7047Z" fill="#4F3422"/>
<path d="M257.822 86.9425C264.204 88.2338 270.571 89.5102 276.953 90.8015C282.742 91.9741 288.812 93.859 294.749 92.9685C295.625 92.8349 295.254 91.514 294.378 91.6475C288.219 92.5826 281.584 90.3414 275.573 89.1392C269.77 87.9666 263.981 86.7941 258.178 85.6364C257.317 85.4434 256.961 86.7644 257.822 86.9425Z" fill="#4F3422"/>
</svg>

