<svg width="16" height="18" viewBox="0 0 16 18" fill="none" xmlns="http://www.w3.org/2000/svg">
<path fill-rule="evenodd" clip-rule="evenodd" d="M3 5.50049C3 2.73906 5.23858 0.500488 8 0.500488C10.7614 0.500488 13 2.73906 13 5.50049V7.34363C13 8.13928 13.3161 8.90235 13.8787 9.46495L15.2929 10.8792C15.7456 11.3319 16 11.946 16 12.5863C16 13.9196 14.9191 15.0005 13.5858 15.0005H11C11 15.3945 10.9224 15.7846 10.7716 16.1485C10.6209 16.5125 10.3999 16.8432 10.1213 17.1218C9.84274 17.4004 9.51203 17.6214 9.14805 17.7721C8.78407 17.9229 8.39397 18.0005 8 18.0005C7.60603 18.0005 7.21593 17.9229 6.85195 17.7721C6.48797 17.6214 6.15726 17.4004 5.87868 17.1218C5.6001 16.8432 5.37913 16.5125 5.22836 16.1485C5.0776 15.7846 5 15.3945 5 15.0005H2.41421C1.08088 15.0005 0 13.9196 0 12.5863C0 11.946 0.254354 11.3319 0.707107 10.8792L2.12132 9.46495C2.68393 8.90235 3 8.13928 3 7.34363V5.50049ZM7 15.0005C7 15.1318 7.02587 15.2618 7.07612 15.3832C7.12638 15.5045 7.20003 15.6147 7.29289 15.7076C7.38575 15.8005 7.49599 15.8741 7.61732 15.9244C7.73864 15.9746 7.86868 16.0005 8 16.0005C8.13132 16.0005 8.26136 15.9746 8.38268 15.9244C8.50401 15.8741 8.61425 15.8005 8.70711 15.7076C8.79996 15.6147 8.87362 15.5045 8.92388 15.3832C8.97413 15.2618 9 15.1318 9 15.0005H7Z" fill="#4F3422"/>
</svg>

