<svg width="20" height="18" viewBox="0 0 20 18" fill="none" xmlns="http://www.w3.org/2000/svg">
<path fill-rule="evenodd" clip-rule="evenodd" d="M6 4.07138C3.64045 4.40888 1.6605 5.92309 0.673631 8.00049H19.3264C18.3395 5.92309 16.3595 4.40888 14 4.07138V4.00049C14 1.79135 12.2091 0.000488281 10 0.000488281C7.79086 0.000488281 6 1.79135 6 4.00049V4.07138ZM8 4.00049H12C12 2.89592 11.1046 2.00049 10 2.00049C8.89543 2.00049 8 2.89592 8 4.00049Z" fill="#4F3422"/>
<path d="M0.0708889 10.0005C0.024172 10.3271 0 10.661 0 11.0005C0 14.8665 3.13401 18.0005 7 18.0005H13C16.866 18.0005 20 14.8665 20 11.0005C20 10.661 19.9758 10.3271 19.9291 10.0005H13C13 11.6573 11.6569 13.0005 10 13.0005C8.34315 13.0005 7 11.6573 7 10.0005H0.0708889Z" fill="#4F3422"/>
<path d="M10 11.0005C9.44772 11.0005 9 10.5528 9 10.0005H11C11 10.5528 10.5523 11.0005 10 11.0005Z" fill="#4F3422"/>
</svg>

